<svg xmlns="http://www.w3.org/2000/svg" id="구성_요소_14_46" width="28" height="28" data-name="구성 요소 14 – 46" viewBox="0 0 28 28">
    <defs>
        <style>
            .cls-1{fill:#f2c063}.cls-2{fill:none}
        </style>
    </defs>
    <path id="패스_127" d="M-504.372 176.066l2.372 5.029a.931.931 0 0 0 .7.531l5.3.806a.983.983 0 0 1 .514 1.655l-3.836 3.913a1 1 0 0 0-.267.859l.906 5.527a.937.937 0 0 1-1.346 1.023l-4.743-2.61a.891.891 0 0 0-.863 0l-4.744 2.61a.937.937 0 0 1-1.346-1.023l.906-5.527a1 1 0 0 0-.267-.859l-3.838-3.915a.983.983 0 0 1 .514-1.655l5.3-.806a.931.931 0 0 0 .7-.531l2.372-5.029a.91.91 0 0 1 1.666.002z" class="cls-1" data-name="패스 127" transform="translate(519.203 -171.525)"/>
    <path id="사각형_32" d="M0 0h28v28H0z" class="cls-2" data-name="사각형 32"/>
</svg>
